Patient4_TMGait_0pt3_01_right_06_GRF.mot
version=1
nRows=78
nColumns=19
inDegrees=no
endheader
time	F1x	F1y	F1z	M1x	M1y	M1z	F2x	F2y	F2z	M2x	M2y	M2z	EC1x	EC1y	EC1z	EC2x	EC2y	EC2z
9.7	2.1714	750.5848	49.7351	-295.4036	-46.9774	772.8621	1.9388	55.6229	-1.0044	14.9768	3.2264	54.375	-0.0592	0.0182	-0.0073	-0.0462	0.0165	0.9585
9.7195	2.715	768.1415	52.0964	-301.9728	-49.4091	789.2066	0.70689	45.2165	-1.6927	12.4729	3.3708	43.8812	-0.0592	0.0182	-0.0073	-0.0462	0.0165	0.9585
9.739	3.3229	787.7313	55.1166	-309.2283	-52.3233	807.2453	-0.33553	34.6464	-2.0124	9.8132	3.2479	33.4354	-0.0592	0.0182	-0.0073	-0.0462	0.0165	0.9585
9.7585	4.0475	807.4204	58.6228	-316.4116	-55.5126	825.0525	-1.0029	24.8786	-1.979	7.258	2.8607	23.9631	-0.0592	0.0182	-0.0073	-0.0462	0.0165	0.9585
9.778	4.9886	825.051	62.3467	-322.6924	-58.6845	840.4791	-1.2594	16.6959	-1.7143	5.0497	2.3109	16.1582	-0.0592	0.0182	-0.0073	-0.0462	0.0165	0.9585
9.7975	6.2447	838.5798	65.9756	-327.3011	-61.5146	851.4922	-1.2766	10.5136	-1.3612	3.3378	1.7578	10.3577	-0.0592	0.0182	-0.0073	-0.0462	0.0165	0.9585
9.817	7.8854	846.4211	69.1914	-329.6602	-63.687	856.5308	-1.2107	6.2706	-1.0104	2.1311	1.2968	6.4515	-0.0592	0.0182	-0.0073	-0.0462	0.0165	0.9585
9.8365	9.9122	847.69	71.7086	-329.4711	-64.9428	854.7521	-1.1579	3.6081	-0.70881	1.3461	0.964	4.0481	-0.0592	0.0182	-0.0073	-0.0462	0.0165	0.9585
9.856	12.2392	842.2985	73.3139	-326.7446	-65.1232	846.1179	-1.1545	2.0251	-0.46997	0.8494	0.74962	2.629	-0.0592	0.0182	-0.0073	-0.0462	0.0165	0.9585
9.8755	14.7516	831.0105	73.8925	-321.8208	-64.1728	831.4321	-1.1777	0.97941	-0.28429	0.48787	0.61021	1.6454	-0.0592	0.0182	-0.0073	-0.0462	0.0165	0.9585
9.895	17.3757	815.3865	73.4414	-315.3409	-62.1296	812.2613	-1.1466	-0.045285	-0.12333	0.10934	0.47485	0.57517	-0.0592	0.0182	-0.0073	-0.0462	0.0165	0.9585
9.9145	20.1056	797.5005	72.0767	-308.1311	-59.1241	790.6504	-0.94415	-1.4813	0.049666	-0.41672	0.2593	-1.0222	-0.0592	0.0182	-0.0073	-0.0462	0.0165	0.9585
9.934	22.9959	779.5438	70.0096	-301.0455	-55.3559	768.7357	-0.57608	-3.498	0.25125	-1.1366	-0.055828	-3.3137	-0.0592	0.0182	-0.0073	-0.0462	0.0165	0.9585
9.9535	26.1318	763.43	67.5082	-294.8124	-51.0644	748.3788	-0.15257	-5.9649	0.464	-1.9993	-0.41575	-6.1345	-0.0592	0.0182	-0.0073	-0.0462	0.0165	0.9585
9.973	29.589	750.4541	64.8638	-289.9059	-46.5163	730.858	0.23585	-8.5007	0.66015	-2.8732	-0.75881	-9.0483	-0.0592	0.0182	-0.0073	-0.0462	0.0165	0.9585
9.9925	33.4022	741.08	62.3559	-286.4665	-41.9817	716.6653	0.5203	-10.4036	0.79322	-3.5199	-1.005	-11.2733	-0.0592	0.0182	-0.0073	-0.0462	0.0165	0.9585
10.012	37.5279	734.8843	60.2042	-284.2858	-37.7034	705.4784	0.64247	-10.5636	0.78643	-3.5639	-1.0403	-11.5675	-0.0592	0.0182	-0.0073	-0.0462	0.0165	0.9585
10.0315	41.8172	730.6068	58.5278	-282.829	-33.8708	696.2116	0.54337	-7.398	0.53125	-2.4702	-0.71212	-8.1499	-0.0592	0.0182	-0.0073	-0.0462	0.0165	0.9585
10.051	46.0384	726.3297	57.3235	-281.3123	-30.5939	687.1776	0.1558	1.151	-0.11022	0.4544	0.16686	1.2919	-0.0592	0.0182	-0.0073	-0.0462	0.0165	0.9585
10.0705	49.9018	719.7331	56.4646	-278.8085	-27.8885	676.3404	-0.58885	17.4885	-1.2922	6.0166	1.8034	19.4583	-0.0592	0.0182	-0.0073	-0.0462	0.0165	0.9585
10.09	53.0706	708.3406	55.7341	-274.3452	-25.7009	661.5445	-1.746	44.0333	-3.16	15.022	4.3938	49.0737	-0.0592	0.0182	-0.0073	-0.0462	0.0165	0.9585
10.1095	55.1954	689.8165	54.8619	-267.0206	-23.931	640.773	-3.3404	82.6102	-5.8112	28.0688	8.0659	92.2085	-0.0592	0.0182	-0.0073	-0.0462	0.0165	0.9585
10.129	55.9753	662.34	53.5544	-256.1504	-22.4342	612.471	-5.4819	133.615	-9.2548	45.2669	12.8682	149.34	-0.0592	0.0182	-0.0073	-0.0462	0.0165	0.9585
10.1485	55.2116	624.9672	51.5374	-241.4089	-21.036	575.8445	-8.594	194.9248	-13.3685	65.8735	18.7901	218.1317	-0.0592	0.0182	-0.0073	-0.0462	0.0165	0.9585
10.168	52.8702	577.9566	48.6256	-222.9445	-19.5696	531.1294	-13.0631	261.2317	-17.9397	88.0691	25.6847	292.6644	-0.0592	0.0182	-0.0073	-0.0462	0.0165	0.9585
10.1875	49.1192	523.0103	44.8152	-201.4539	-17.9408	479.8014	-18.4727	326.5169	-22.7148	109.802	33.0887	366.1361	-0.0592	0.0182	-0.0073	-0.0462	0.0165	0.9585
10.207	44.289	463.0107	40.3344	-178.0714	-16.1893	424.3655	-24.0188	387.0589	-27.2813	129.8239	40.2569	434.2816	-0.0592	0.0182	-0.0073	-0.0462	0.0165	0.9585
10.2265	38.7841	401.3125	35.4901	-154.0995	-14.3982	367.7539	-29.0167	441.0371	-31.3038	147.551	46.5841	494.9911	-0.0592	0.0182	-0.0073	-0.0462	0.0165	0.9585
10.246	33.0226	341.1858	30.5528	-130.7997	-12.6208	312.8305	-33.0609	487.7885	-34.6046	162.7974	51.7396	547.4796	-0.0592	0.0182	-0.0073	-0.0462	0.0165	0.9585
10.2655	27.3922	285.4281	25.7473	-109.2459	-10.8877	262.045	-35.967	527.5376	-37.1916	175.6743	55.6788	591.9548	-0.0592	0.0182	-0.0073	-0.0462	0.0165	0.9585
10.285	22.2211	236.1175	21.2704	-90.2273	-9.234	217.2104	-37.7405	561.0019	-39.1436	186.4597	58.505	629.1819	-0.0592	0.0182	-0.0073	-0.0462	0.0165	0.9585
10.3045	17.7493	194.5167	17.3004	-74.2089	-7.7162	179.4147	-38.5487	589.0021	-40.5315	195.4673	60.3655	660.0619	-0.0592	0.0182	-0.0073	-0.0462	0.0165	0.9585
10.324	14.1183	161.0568	13.9799	-61.3323	-6.404	149.0006	-38.6229	612.3246	-41.3859	202.9938	61.3814	685.4723	-0.0592	0.0182	-0.0073	-0.0462	0.0165	0.9585
10.3435	11.359	135.344	11.3808	-51.4281	-5.3532	125.5738	-38.1556	631.6493	-41.7228	209.2793	61.6363	706.1728	-0.0592	0.0182	-0.0073	-0.0462	0.0165	0.9585
10.363	9.3599	116.1803	9.4726	-44.0291	-4.5861	108.0273	-37.2754	647.4605	-41.617	214.4616	61.2481	722.7049	-0.0592	0.0182	-0.0073	-0.0462	0.0165	0.9585
10.3825	7.8865	101.7458	8.1434	-38.4404	-4.0987	94.7075	-36.054	660.1149	-41.2412	218.6001	60.416	735.4688	-0.0592	0.0182	-0.0073	-0.0462	0.0165	0.9585
10.402	6.6532	89.9752	7.2343	-33.8811	-3.863	83.7457	-34.5198	670.0343	-40.8481	221.7554	59.4143	744.9385	-0.0592	0.0182	-0.0073	-0.0462	0.0165	0.9585
10.4215	5.4103	79.017	6.5636	-29.6572	-3.8148	73.4784	-32.69	677.8692	-40.6966	224.0674	58.5302	751.8435	-0.0592	0.0182	-0.0073	-0.0462	0.0165	0.9585
10.441	4.0225	67.6491	5.9552	-25.3135	-3.8516	62.8197	-30.6022	684.4425	-40.9818	225.7502	57.9969	757.1104	-0.0592	0.0182	-0.0073	-0.0462	0.0165	0.9585
10.4605	2.5089	55.4651	5.2767	-20.6985	-3.8534	51.4253	-28.3372	690.4836	-41.801	227.0068	57.9637	761.5811	-0.0592	0.0182	-0.0073	-0.0462	0.0165	0.9585
10.48	1.0465	42.7978	4.4635	-15.9333	-3.7008	39.6209	-26.0335	696.3652	-43.1623	227.947	58.5049	765.7289	-0.0592	0.0182	-0.0073	-0.0462	0.0165	0.9585
10.4995	-0.099888	30.4749	3.5247	-11.3214	-3.3041	28.1738	-23.8552	702.0355	-44.9863	228.5761	59.6097	769.5735	-0.0592	0.0182	-0.0073	-0.0462	0.0165	0.9585
10.519	-0.72172	19.4791	2.537	-7.2221	-2.655	17.9806	-21.927	707.2189	-47.0906	228.8787	61.1465	772.8695	-0.0592	0.0182	-0.0073	-0.0462	0.0165	0.9585
10.5385	-0.86303	10.5942	1.6222	-3.9201	-1.8807	9.7547	-20.3199	711.8063	-49.2078	228.9546	62.8699	775.5075	-0.0592	0.0182	-0.0073	-0.0462	0.0165	0.9585
10.558	-0.7181	4.1005	0.8773	-1.5133	-1.1456	3.7534	-19.0561	716.2603	-51.0219	229.1368	64.4591	777.935	-0.0592	0.0182	-0.0073	-0.0462	0.0165	0.9585
10.5775	-0.4364	-0.18009	0.33038	0.070987	-0.5367	-0.19162	-18.0628	721.7941	-52.2418	230.0105	65.5793	781.3305	-0.0592	0.0182	-0.0073	-0.0462	0.0165	0.9585
10.597	-0.11971	-2.6513	-0.030888	0.98685	-0.081564	-2.4592	-17.1807	730.0812	-52.6874	232.27	65.9687	787.3039	-0.0592	0.0182	-0.0073	-0.0462	0.0165	0.9585
10.6165	0.16784	-3.7907	-0.23927	1.4118	0.2275	-3.4962	-16.2292	742.6868	-52.3241	236.4981	65.4955	797.3319	-0.0592	0.0182	-0.0073	-0.0462	0.0165	0.9585
10.636	0.39322	-4.0542	-0.33484	1.5116	0.41443	-3.7278	-15.1125	760.5442	-51.2488	242.9844	64.1877	812.2688	-0.0592	0.0182	-0.0073	-0.0462	0.0165	0.9585
10.6555	0.54747	-3.8197	-0.35498	1.4232	0.50618	-3.5019	-13.8776	783.6625	-49.6645	251.6399	62.2341	832.0897	-0.0592	0.0182	-0.0073	-0.0462	0.0165	0.9585
10.675	0.63463	-3.3717	-0.33203	1.2527	0.53096	-3.0819	-12.6505	811.002	-47.8417	261.9827	59.9222	855.767	-0.0592	0.0182	-0.0073	-0.0462	0.0165	0.9585
10.6945	0.66152	-2.9104	-0.28904	1.0776	0.51195	-2.6625	-11.5126	840.4458	-46.0438	273.1576	57.5217	881.2182	-0.0592	0.0182	-0.0073	-0.0462	0.0165	0.9585
10.714	0.63683	-2.5806	-0.24355	0.95485	0.46857	-2.3821	-10.4614	868.8996	-44.4561	283.9919	55.2053	905.3987	-0.0592	0.0182	-0.0073	-0.0462	0.0165	0.9585
10.7335	0.56889	-2.4867	-0.20798	0.92614	0.41326	-2.3449	-9.4345	892.6546	-43.1728	293.1308	53.0466	924.6634	-0.0592	0.0182	-0.0073	-0.0462	0.0165	0.9585
10.753	0.46699	-2.7011	-0.19296	1.0206	0.35748	-2.6315	-8.3261	908.0768	-42.2001	299.2776	51.0309	935.459	-0.0592	0.0182	-0.0073	-0.0462	0.0165	0.9585
10.7725	0.34375	-3.2648	-0.20981	1.2554	0.31709	-3.2911	-7.0031	912.4212	-41.4733	301.4684	49.0731	935.1371	-0.0592	0.0182	-0.0073	-0.0462	0.0165	0.9585
10.792	0.22062	-4.1793	-0.26617	1.6303	0.31192	-4.3273	-5.3419	904.4559	-40.8907	299.278	47.062	922.5765	-0.0592	0.0182	-0.0073	-0.0462	0.0165	0.9585
10.8115	0.1313	-5.3864	-0.3664	2.1199	0.36384	-5.6807	-3.2425	884.7189	-40.3624	292.9006	44.9088	898.422	-0.0592	0.0182	-0.0073	-0.0462	0.0165	0.9585
10.831	0.12417	-6.7333	-0.51318	2.66	0.49935	-7.1888	-0.64456	855.4088	-39.8399	283.1064	42.579	864.9442	-0.0592	0.0182	-0.0073	-0.0462	0.0165	0.9585
10.8505	0.26808	-7.9286	-0.70448	3.1307	0.75181	-8.5389	2.4513	819.956	-39.3234	271.0892	40.1049	825.5998	-0.0592	0.0182	-0.0073	-0.0462	0.0165	0.9585
10.87	0.65347	-8.501	-0.93431	3.3378	1.1547	-9.2153	5.9904	782.4077	-38.8474	258.2552	37.5688	784.4075	-0.0592	0.0182	-0.0073	-0.0462	0.0165	0.9585
10.8895	1.3884	-7.76	-1.1874	2.997	1.7325	-8.4427	9.8698	746.7353	-38.4537	245.9862	35.0718	745.269	-0.0592	0.0182	-0.0073	-0.0462	0.0165	0.9585
10.909	2.5858	-4.7715	-1.4269	1.7279	2.4858	-5.1717	13.937	716.1718	-38.1717	235.4142	32.7119	711.3267	-0.0592	0.0182	-0.0073	-0.0462	0.0165	0.9585
10.9285	4.3309	1.6095	-1.5778	-0.93249	3.3649	1.8864	18.0133	692.7061	-38.0047	227.2467	30.5614	684.4865	-0.0592	0.0182	-0.0073	-0.0462	0.0165	0.9585
10.948	6.637	12.6144	-1.5221	-5.4786	4.2402	14.1382	21.9039	676.793	-37.9254	221.6649	28.6583	665.1621	-0.0592	0.0182	-0.0073	-0.0462	0.0165	0.9585
10.9675	9.3848	29.3142	-1.0932	-12.336	4.8702	32.8245	25.3967	667.3067	-37.8795	218.305	27.0136	652.259	-0.0592	0.0182	-0.0073	-0.0462	0.0165	0.9585
10.987	12.2075	52.2435	-0.078593	-21.7045	4.8595	58.5909	28.2795	661.7953	-37.7885	216.3434	25.613	643.4345	-0.0592	0.0182	-0.0073	-0.0462	0.0165	0.9585
11.0065	14.3001	80.9508	1.7485	-33.3732	3.6182	90.9785	30.3567	657.0346	-37.5574	214.6857	24.4191	635.6371	-0.0592	0.0182	-0.0073	-0.0462	0.0165	0.9585
11.026	14.7855	113.8843	4.5775	-46.6795	0.58301	128.2948	31.4793	649.7656	-37.0945	212.2191	23.386	625.8104	-0.0592	0.0182	-0.0073	-0.0462	0.0165	0.9585
11.0455	13.4976	149.1065	8.3639	-60.8215	-4.2542	168.3678	31.6099	637.4362	-36.3468	208.065	22.4688	611.5728	-0.0592	0.0182	-0.0073	-0.0462	0.0165	0.9585
11.065	10.753	184.8321	12.7449	-75.0983	-10.3405	209.1216	30.8435	618.6818	-35.3061	201.7487	21.6257	591.655	-0.0592	0.0182	-0.0073	-0.0462	0.0165	0.9585
11.0845	7.0412	219.9735	17.1488	-89.1192	-16.8136	249.2453	29.3965	593.5456	-33.9901	193.2788	20.8072	566.0903	-0.0592	0.0182	-0.0073	-0.0462	0.0165	0.9585
11.104	2.7972	254.4277	21.1274	-102.8831	-22.989	288.5684	27.5468	563.3059	-32.4487	183.0866	19.9704	536.0479	-0.0592	0.0182	-0.0073	-0.0462	0.0165	0.9585
11.1235	-1.6364	288.53	24.485	-116.5392	-28.5172	327.4611	25.5203	529.8695	-30.7656	171.8196	19.1132	503.2738	-0.0592	0.0182	-0.0073	-0.0462	0.0165	0.9585
11.143	-5.982	322.3995	27.2078	-130.1229	-33.287	366.0791	23.4139	495.1285	-29.0392	160.1261	18.2812	469.5029	-0.0592	0.0182	-0.0073	-0.0462	0.0165	0.9585
11.1625	-9.9885	355.6059	29.3989	-143.4295	-37.3361	403.9812	21.2042	460.6291	-27.3332	148.5403	17.525	436.1523	-0.0592	0.0182	-0.0073	-0.0462	0.0165	0.9585
11.182	-13.461	387.1714	31.1958	-156.0301	-40.7659	440.1289	18.8176	427.5528	-25.6705	137.4687	16.8757	404.2964	-0.0592	0.0182	-0.0073	-0.0462	0.0165	0.9585
11.2015	-16.3009	415.9494	32.67	-167.4358	-43.6408	473.3046	16.2144	396.817	-24.0576	127.2146	16.3424	374.7555	-0.0592	0.0182	-0.0073	-0.0462	0.0165	0.9585
